<?xml version="1.0" encoding="UTF-8"?>
<svg xmlns="http://www.w3.org/2000/svg" width="206" height="38" viewBox="0 0 206 38" fill="none">
  <g clip-path="url(#clip0_3551_11905)">
    <path d="M56.6442 30.3433C54.7629 30.3789 52.9037 29.9363 51.2426 29.0575C49.7019 28.2316 48.4335 26.9814 47.5895 25.4568C46.7209 23.9071 46.2858 22.0756 46.2842 19.9625V19.4371C46.2842 17.3514 46.7193 15.5264 47.5895 13.9621C48.427 12.4246 49.6962 11.1626 51.2426 10.3299C52.9182 9.49088 54.7681 9.05383 56.6442 9.05383C58.5203 9.05383 60.3703 9.49088 62.0458 10.3299C63.5922 11.1626 64.8614 12.4246 65.6989 13.9621C66.5691 15.5264 67.0042 17.3514 67.0042 19.4371V19.9722C67.0042 22.0837 66.5691 23.9151 65.6989 25.4665C64.8549 26.9911 63.5865 28.2413 62.0458 29.0672C60.3838 29.9427 58.5246 30.3819 56.6442 30.3433ZM56.6442 27.4206C58.7971 27.4206 60.5148 26.7418 61.7974 25.3842C63.0801 24.0265 63.7222 22.1951 63.7238 19.8899V19.5194C63.7238 17.2142 63.0817 15.3819 61.7974 14.0227C60.5132 12.6634 58.7954 11.9846 56.6442 11.9862C54.519 11.9862 52.8077 12.665 51.5105 14.0227C50.2132 15.3803 49.5638 17.2125 49.5622 19.5194V19.8899C49.5622 22.1951 50.2116 24.0265 51.5105 25.3842C52.8093 26.7418 54.5206 27.4206 56.6442 27.4206Z" fill="#2D24C0"></path>
    <path d="M77.3005 30.1376C75.898 30.152 74.5131 29.8271 73.2651 29.1908C72.037 28.561 71.0274 27.5791 70.367 26.3722C69.664 25.1227 69.3125 23.6069 69.3125 21.8247V9.63989H72.5735V21.5777C72.5735 23.5794 73.0768 25.0323 74.0834 25.9363C75.09 26.8403 76.4538 27.294 78.1748 27.2972C80.1085 27.2972 81.6955 26.6668 82.9359 25.406C84.1763 24.1453 84.7974 22.2654 84.799 19.7664V9.63989H88.0697V29.7671H84.8769V26.3528H84.2973C83.7773 27.4042 82.9929 28.3042 82.0202 28.9656C80.9438 29.7469 79.3706 30.1376 77.3005 30.1376Z" fill="#2D24C0"></path>
    <path d="M100.093 29.767C98.9339 29.767 98.0409 29.4515 97.4142 28.8203C96.7875 28.1891 96.4774 27.3246 96.4839 26.2269V12.4802H90.3955V9.63986H96.4839V2.47717H99.7546V9.63986H106.376V12.4802H99.7497V25.7353C99.7497 26.557 100.15 26.9678 100.95 26.9678H105.451V29.767H100.093Z" fill="#2D24C0"></path>
    <path d="M118.171 30.3433C115.66 30.3433 113.542 29.767 111.817 28.6144C110.093 27.4617 109.051 25.6376 108.69 23.1419L111.796 22.4421C112.016 23.7593 112.43 24.7949 113.038 25.5488C113.62 26.2868 114.402 26.8439 115.293 27.1542C116.217 27.4776 117.191 27.6414 118.171 27.6385C119.688 27.6385 120.888 27.3366 121.773 26.7329C122.185 26.4765 122.523 26.119 122.755 25.6949C122.987 25.2707 123.105 24.7942 123.098 24.3114C123.098 23.267 122.677 22.5325 121.834 22.1079C120.736 21.6035 119.573 21.2507 118.378 21.0594L116.674 20.7712C115.449 20.5719 114.254 20.2263 113.113 19.7421C112.118 19.3245 111.243 18.668 110.566 17.8316C109.901 16.9723 109.556 15.9102 109.592 14.8266C109.592 13.0153 110.295 11.602 111.703 10.5866C113.111 9.57118 114.978 9.06348 117.304 9.06348C119.594 9.06348 121.449 9.57763 122.872 10.6059C124.294 11.6343 125.212 13.0823 125.626 14.9501L122.56 15.7394C122.311 14.2866 121.718 13.2639 120.78 12.6715C119.841 12.079 118.682 11.7844 117.302 11.7876C115.92 11.7876 114.83 12.0411 114.031 12.548C113.647 12.7807 113.333 13.1119 113.122 13.5068C112.91 13.9017 112.81 14.3458 112.831 14.7927C112.831 15.7612 113.21 16.4675 113.97 16.9114C114.915 17.4271 115.945 17.7683 117.012 17.9188L118.717 18.2069C120.035 18.4237 121.331 18.7609 122.587 19.2142C123.642 19.5795 124.583 20.2112 125.319 21.0473C125.996 21.8415 126.335 22.8844 126.335 24.1758C126.335 26.1501 125.596 27.6724 124.118 28.7427C122.641 29.813 120.659 30.3465 118.171 30.3433Z" fill="#2D24C0"></path>
    <path d="M139.018 30.3433C137.137 30.3789 135.278 29.9363 133.617 29.0575C132.076 28.2316 130.808 26.9814 129.964 25.4568C129.093 23.9071 128.658 22.0756 128.658 19.9625V19.4371C128.658 17.3514 129.093 15.5264 129.964 13.9621C130.801 12.4246 132.07 11.1626 133.617 10.3299C135.292 9.49088 137.142 9.05383 139.018 9.05383C140.894 9.05383 142.744 9.49088 144.42 10.3299C145.966 11.1626 147.235 12.4246 148.073 13.9621C148.942 15.5264 149.377 17.3514 149.378 19.4371V19.9722C149.378 22.0837 148.943 23.9151 148.073 25.4665C147.227 26.9879 145.958 28.2346 144.417 29.0575C142.757 29.9359 140.899 30.3785 139.018 30.3433ZM139.018 27.4206C141.171 27.4206 142.889 26.7418 144.171 25.3842C145.454 24.0265 146.096 22.1951 146.098 19.8899V19.5194C146.098 17.2142 145.456 15.3819 144.171 14.0227C142.887 12.6634 141.169 11.9846 139.018 11.9862C136.891 11.9862 135.18 12.665 133.884 14.0227C132.589 15.3803 131.939 17.2125 131.936 19.5194V19.8899C131.936 22.1951 132.586 24.0265 133.884 25.3842C135.183 26.7418 136.895 27.4206 139.018 27.4206Z" fill="#2D24C0"></path>
    <path d="M151.687 29.767V9.63979H154.872V12.1073H155.452C155.758 11.2886 156.344 10.603 157.108 10.1701C157.853 9.75844 158.833 9.55261 160.047 9.55261H162.439V12.5213H159.84C158.379 12.5213 157.199 12.9249 156.302 13.7321C155.404 14.5392 154.955 15.7951 154.955 17.4998V29.7646L151.687 29.767Z" fill="#2D24C0"></path>
    <path d="M175.075 30.3434C173.238 30.3721 171.422 29.9408 169.796 29.0891C168.249 28.2609 166.97 27.012 166.111 25.4883C165.215 23.9241 164.767 22.0676 164.767 19.919V19.4783C164.767 17.3103 165.215 15.4538 166.111 13.9089C166.974 12.393 168.252 11.1513 169.796 10.3276C171.422 9.47582 173.238 9.04448 175.075 9.07325C177.008 9.07325 178.656 9.43001 180.022 10.1435C181.324 10.8013 182.436 11.779 183.251 12.9839C184.022 14.1238 184.537 15.4155 184.761 16.7711L181.573 17.4297C181.445 16.4659 181.113 15.54 180.599 14.7128C180.076 13.8788 179.341 13.1971 178.468 12.7369C177.43 12.2137 176.277 11.9589 175.114 11.996C173.847 11.9744 172.597 12.2869 171.491 12.9016C170.421 13.5143 169.547 14.4138 168.968 15.4974C168.321 16.7386 168.002 18.1223 168.04 19.5194V19.8899C168.001 21.2913 168.321 22.6795 168.97 23.9241C169.551 25.0062 170.426 25.904 171.496 26.515C172.601 27.1308 173.852 27.4434 175.119 27.4207C177.134 27.4207 178.677 26.8992 179.747 25.8564C180.81 24.8132 181.501 23.4525 181.714 21.9821L184.941 22.6819C184.629 24.0215 184.067 25.2912 183.285 26.4254C182.46 27.6296 181.343 28.6067 180.036 29.2658C178.661 29.9858 177.008 30.345 175.075 30.3434Z" fill="#2D24C0"></path>
    <path d="M189.936 38.0001V35.1113H201.529C202.327 35.1113 202.729 34.6996 202.729 33.8763V26.5562H202.15C201.828 27.1929 201.401 27.771 200.886 28.2658C200.253 28.8696 199.498 29.3327 198.672 29.6242C197.566 29.9968 196.403 30.1707 195.236 30.1376C193.833 30.1523 192.448 29.8273 191.2 29.1908C189.976 28.5656 188.967 27.5919 188.302 26.394C187.597 25.1623 187.245 23.6537 187.245 21.8683V9.63989H190.516V21.6189C190.516 23.5948 191.02 25.0347 192.028 25.9388C193.036 26.8428 194.395 27.2956 196.105 27.2972C198.035 27.2972 199.622 26.6668 200.866 25.406C202.11 24.1453 202.731 22.2654 202.729 19.7664V9.63989H206V34.4599C206 35.5576 205.689 36.4221 205.067 37.0533C204.445 37.6845 203.542 38.0001 202.357 38.0001H189.936Z" fill="#2D24C0"></path>
    <path d="M18.3552 1.29135e-06C18.8071 -0.000477738 19.249 0.132326 19.625 0.381612C20.001 0.630898 20.2941 0.985463 20.4674 1.40045C20.6407 1.81544 20.6863 2.27221 20.5984 2.71296C20.5105 3.15372 20.2931 3.55865 19.9738 3.87655C19.6544 4.19444 19.2474 4.41101 18.8042 4.49884C18.361 4.58668 17.9015 4.54184 17.484 4.37C17.0664 4.19816 16.7095 3.90704 16.4584 3.53347C16.2073 3.1599 16.0732 2.72066 16.0732 2.27133C16.0732 1.66936 16.3136 1.092 16.7415 0.666114C17.1693 0.240227 17.7497 0.000643056 18.3552 1.29135e-06Z" fill="#2D24C0"></path>
    <path d="M18.3552 5.90357C18.8071 5.90309 19.249 6.03589 19.625 6.28518C20.001 6.53446 20.2941 6.88903 20.4674 7.30402C20.6407 7.71901 20.6863 8.17577 20.5984 8.61653C20.5105 9.05728 20.2931 9.46222 19.9738 9.78011C19.6544 10.098 19.2474 10.3146 18.8042 10.4024C18.361 10.4902 17.9015 10.4454 17.484 10.2736C17.0664 10.1017 16.7095 9.8106 16.4584 9.43703C16.2073 9.06346 16.0732 8.62423 16.0732 8.1749C16.0732 7.87662 16.1323 7.58127 16.2471 7.3057C16.3619 7.03013 16.5302 6.77974 16.7423 6.56882C17.1707 6.14287 17.7518 5.90357 18.3576 5.90357" fill="#2D24C0"></path>
    <path d="M18.3552 25.3939C18.8071 25.3934 19.249 25.5262 19.625 25.7755C20.001 26.0248 20.2941 26.3794 20.4674 26.7944C20.6407 27.2094 20.6863 27.6661 20.5984 28.1069C20.5105 28.5476 20.2931 28.9526 19.9738 29.2705C19.6544 29.5884 19.2474 29.8049 18.8042 29.8928C18.361 29.9806 17.9015 29.9358 17.484 29.7639C17.0664 29.5921 16.7095 29.301 16.4584 28.9274C16.2073 28.5538 16.0732 28.1146 16.0732 27.6653C16.0732 27.0629 16.3139 26.4851 16.7423 26.0592C17.1707 25.6332 17.7518 25.3939 18.3576 25.3939" fill="#2D24C0"></path>
    <path d="M18.3552 31.2368C18.8069 31.2363 19.2486 31.369 19.6245 31.6181C20.0003 31.8672 20.2935 32.2214 20.4669 32.6362C20.6403 33.0509 20.6862 33.5074 20.5987 33.948C20.5113 34.3886 20.2944 34.7936 19.9755 35.1117C19.6566 35.4297 19.25 35.6467 18.8071 35.7351C18.3643 35.8234 17.905 35.7793 17.4874 35.6082C17.0697 35.4371 16.7125 35.1467 16.4608 34.7738C16.2091 34.4009 16.0742 33.9621 16.0732 33.513C16.0726 33.2145 16.1311 32.9188 16.2455 32.6429C16.3599 32.3669 16.5278 32.116 16.7397 31.9046C16.9517 31.6933 17.2034 31.5255 17.4806 31.4109C17.7578 31.2963 18.055 31.2371 18.3552 31.2368Z" fill="#2D24C0"></path>
    <path d="M11.6262 8.63009C12.0782 8.63009 12.52 8.76342 12.8958 9.01321C13.2716 9.26301 13.5644 9.61803 13.7371 10.0333C13.9099 10.4487 13.9548 10.9056 13.8663 11.3463C13.7777 11.787 13.5597 12.1917 13.2397 12.5092C12.9198 12.8267 12.5123 13.0426 12.0688 13.1297C11.6254 13.2168 11.1659 13.1711 10.7486 12.9985C10.3313 12.8258 9.97484 12.5339 9.72442 12.1598C9.47399 11.7856 9.34084 11.346 9.3418 10.8966C9.3418 10.2942 9.58248 9.71646 10.0109 9.2905C10.4393 8.86455 11.0203 8.62524 11.6262 8.62524" fill="#2D24C0"></path>
    <path d="M8.633 16.0519C9.08481 16.0519 9.52647 16.1851 9.90213 16.4347C10.2778 16.6842 10.5706 17.039 10.7435 17.454C10.9164 17.869 10.9616 18.3257 10.8735 18.7663C10.7853 19.2069 10.5678 19.6116 10.2483 19.9293C9.92882 20.2469 9.52179 20.4633 9.07866 20.5509C8.63554 20.6385 8.17623 20.5936 7.75881 20.4216C7.3414 20.2497 6.98463 19.9586 6.73362 19.5851C6.48261 19.2116 6.34863 18.7724 6.34863 18.3232C6.34928 17.721 6.59016 17.1437 7.01842 16.7178C7.44668 16.292 8.02735 16.0525 8.633 16.0519Z" fill="#2D24C0"></path>
    <path d="M11.6262 22.7424C12.078 22.7424 12.5196 22.8756 12.8953 23.1252C13.271 23.3748 13.5638 23.7295 13.7366 24.1446C13.9095 24.5596 13.9548 25.0163 13.8666 25.4569C13.7785 25.8975 13.5609 26.3022 13.2415 26.6198C12.922 26.9375 12.5149 27.1538 12.0718 27.2415C11.6287 27.3291 11.1694 27.2841 10.752 27.1122C10.3346 26.9403 9.97779 26.6492 9.72678 26.2756C9.47577 25.9021 9.3418 25.463 9.3418 25.0138C9.3418 24.4114 9.58247 23.8336 10.0109 23.4077C10.4393 22.9817 11.0203 22.7424 11.6262 22.7424Z" fill="#2D24C0"></path>
    <path d="M7.61811 27.2463C8.01116 27.2463 8.39537 27.3622 8.72218 27.5793C9.04898 27.7965 9.30369 28.1051 9.4541 28.4661C9.60451 28.8272 9.64386 29.2244 9.56719 29.6077C9.49051 29.991 9.30124 30.3431 9.02332 30.6194C8.74539 30.8958 8.3913 31.084 8.00581 31.1602C7.62032 31.2364 7.22075 31.1973 6.85762 31.0478C6.4945 30.8982 6.18413 30.6449 5.96577 30.32C5.74741 29.9951 5.63086 29.6131 5.63086 29.2223C5.63086 28.6982 5.84023 28.1956 6.21291 27.8251C6.5856 27.4545 7.09106 27.2463 7.61811 27.2463Z" fill="#2D24C0"></path>
    <path d="M29.125 27.2463C29.518 27.2463 29.9022 27.3622 30.229 27.5793C30.5558 27.7965 30.8105 28.1051 30.9609 28.4661C31.1113 28.8272 31.1507 29.2244 31.074 29.6077C30.9973 29.991 30.8081 30.3431 30.5302 30.6194C30.2522 30.8958 29.8981 31.084 29.5126 31.1602C29.1272 31.2364 28.7276 31.1973 28.3645 31.0478C28.0013 30.8982 27.691 30.6449 27.4726 30.32C27.2542 29.9951 27.1377 29.6131 27.1377 29.2223C27.1377 28.6982 27.3471 28.1956 27.7197 27.8251C28.0924 27.4545 28.5979 27.2463 29.125 27.2463Z" fill="#2D24C0"></path>
    <path d="M29.1533 4.60083C29.5463 4.60083 29.9305 4.71672 30.2573 4.93383C30.5841 5.15095 30.8388 5.45954 30.9893 5.82059C31.1397 6.18165 31.179 6.57894 31.1023 6.96222C31.0257 7.34551 30.8364 7.69759 30.5585 7.97392C30.2805 8.25026 29.9265 8.43845 29.541 8.51469C29.1555 8.59093 28.7559 8.5518 28.3928 8.40225C28.0297 8.2527 27.7193 7.99944 27.5009 7.6745C27.2826 7.34956 27.166 6.96754 27.166 6.57674C27.166 6.0527 27.3754 5.55012 27.7481 5.17956C28.1208 4.80901 28.6262 4.60083 29.1533 4.60083Z" fill="#2D24C0"></path>
    <path d="M7.52241 4.60083C7.91545 4.60083 8.29967 4.71672 8.62647 4.93383C8.95327 5.15095 9.20799 5.45954 9.3584 5.82059C9.50881 6.18165 9.54816 6.57894 9.47148 6.96222C9.3948 7.34551 9.20554 7.69759 8.92761 7.97392C8.64969 8.25026 8.2956 8.43845 7.91011 8.51469C7.52462 8.59093 7.12505 8.5518 6.76192 8.40225C6.3988 8.2527 6.08843 7.99944 5.87007 7.6745C5.65171 7.34956 5.53516 6.96754 5.53516 6.57674C5.53516 6.0527 5.74453 5.55012 6.11721 5.17956C6.48989 4.80901 6.99536 4.60083 7.52241 4.60083Z" fill="#2D24C0"></path>
    <path d="M6.04662 22.0062C6.33841 22.0067 6.62351 22.0932 6.86589 22.2547C7.10826 22.4162 7.29705 22.6456 7.40838 22.9138C7.5197 23.1819 7.54858 23.4769 7.49136 23.7614C7.43414 24.0459 7.29339 24.3071 7.0869 24.5121C6.8804 24.7171 6.61743 24.8566 6.33121 24.913C6.045 24.9694 5.74838 24.9402 5.47885 24.8291C5.20932 24.718 4.97897 24.5299 4.81691 24.2886C4.65485 24.0474 4.56836 23.7638 4.56836 23.4736C4.56836 23.2807 4.60661 23.0897 4.68093 22.9115C4.75525 22.7333 4.86418 22.5715 5.00148 22.4352C5.13878 22.2989 5.30176 22.1908 5.4811 22.1172C5.66044 22.0436 5.85261 22.0059 6.04662 22.0062Z" fill="#2D24C0"></path>
    <path d="M6.04663 11.6012C6.33879 11.6012 6.62441 11.6873 6.8674 11.8486C7.11039 12.0099 7.29987 12.2391 7.41189 12.5074C7.52392 12.7757 7.55348 13.071 7.49683 13.356C7.44019 13.641 7.29988 13.9029 7.09363 14.1086C6.88738 14.3144 6.62443 14.4548 6.338 14.512C6.05156 14.5693 5.75449 14.5409 5.48429 14.4304C5.21408 14.3198 4.98288 14.1322 4.81986 13.8911C4.65684 13.6501 4.56932 13.3664 4.56836 13.0759C4.56804 12.8828 4.60606 12.6915 4.68023 12.513C4.75441 12.3345 4.86329 12.1724 5.00062 12.0358C5.13795 11.8993 5.30104 11.791 5.48054 11.7173C5.66004 11.6435 5.85241 11.6057 6.04663 11.606" fill="#2D24C0"></path>
    <path d="M13.8015 4.43616C14.094 4.43616 14.3799 4.52242 14.623 4.68404C14.8662 4.84565 15.0557 5.07535 15.1675 5.34407C15.2793 5.61279 15.3084 5.90844 15.2512 6.19363C15.194 6.47881 15.0529 6.74071 14.8459 6.94617C14.639 7.15163 14.3753 7.29143 14.0884 7.34787C13.8015 7.40431 13.5042 7.37485 13.2341 7.26323C12.964 7.15161 12.7333 6.96285 12.5712 6.72082C12.4091 6.47879 12.3228 6.19437 12.3232 5.90357C12.3232 5.71066 12.3615 5.51965 12.4358 5.34145C12.5101 5.16326 12.6191 5.00139 12.7564 4.8651C12.8937 4.7288 13.0566 4.62076 13.236 4.54716C13.4153 4.47356 13.6075 4.43584 13.8015 4.43616Z" fill="#2D24C0"></path>
    <path d="M13.8015 28.8445C14.094 28.8445 14.3799 28.9307 14.623 29.0924C14.8662 29.254 15.0557 29.4837 15.1675 29.7524C15.2793 30.0211 15.3084 30.3168 15.2512 30.602C15.194 30.8871 15.0529 31.149 14.8459 31.3545C14.639 31.56 14.3753 31.6997 14.0884 31.7562C13.8015 31.8126 13.5042 31.7832 13.2341 31.6716C12.964 31.5599 12.7333 31.3712 12.5712 31.1291C12.4091 30.8871 12.3228 30.6027 12.3232 30.3119C12.3232 30.119 12.3615 29.928 12.4358 29.7498C12.5101 29.5716 12.6191 29.4097 12.7564 29.2734C12.8937 29.1371 13.0566 29.0291 13.236 28.9555C13.4153 28.8819 13.6075 28.8442 13.8015 28.8445Z" fill="#2D24C0"></path>
    <path d="M22.6492 4.43616C22.9416 4.43616 23.2275 4.52242 23.4707 4.68404C23.7139 4.84565 23.9033 5.07535 24.0151 5.34407C24.127 5.61278 24.1561 5.90844 24.0988 6.19363C24.0416 6.47881 23.9006 6.7407 23.6936 6.94617C23.4866 7.15163 23.223 7.29142 22.9361 7.34786C22.6491 7.4043 22.3518 7.37485 22.0818 7.26323C21.8117 7.15161 21.581 6.96284 21.4188 6.72081C21.2567 6.47878 21.1704 6.19437 21.1709 5.90356C21.1715 5.51416 21.3276 5.14093 21.6047 4.8658C21.8819 4.59068 22.2575 4.43616 22.6492 4.43616Z" fill="#2D24C0"></path>
    <path d="M22.6492 28.8445C22.9416 28.8445 23.2275 28.9307 23.4707 29.0924C23.7139 29.254 23.9033 29.4837 24.0151 29.7524C24.127 30.0211 24.1561 30.3168 24.0988 30.602C24.0416 30.8871 23.9006 31.149 23.6936 31.3545C23.4866 31.56 23.223 31.6997 22.9361 31.7562C22.6491 31.8126 22.3518 31.7832 22.0818 31.6716C21.8117 31.5599 21.581 31.3712 21.4188 31.1291C21.2567 30.8871 21.1704 30.6027 21.1709 30.3119C21.1715 29.9225 21.3276 29.5493 21.6047 29.2741C21.8819 28.999 22.2575 28.8445 22.6492 28.8445Z" fill="#2D24C0"></path>
    <path d="M30.6316 22.3405C30.924 22.3405 31.2098 22.4267 31.4529 22.5882C31.696 22.7497 31.8854 22.9792 31.9973 23.2478C32.1092 23.5164 32.1385 23.8119 32.0814 24.097C32.0244 24.3821 31.8836 24.644 31.6769 24.8496C31.4701 25.0552 31.2067 25.1952 30.92 25.2519C30.6332 25.3086 30.336 25.2795 30.0659 25.1682C29.7958 25.057 29.5649 24.8686 29.4025 24.6269C29.24 24.3852 29.1533 24.101 29.1533 23.8103C29.154 23.4207 29.3099 23.0472 29.587 22.7717C29.8641 22.4962 30.2397 22.3411 30.6316 22.3405Z" fill="#2D24C0"></path>
    <path d="M30.6316 11.2598C30.924 11.2598 31.2098 11.346 31.4529 11.5075C31.696 11.669 31.8854 11.8985 31.9973 12.1671C32.1092 12.4357 32.1385 12.7312 32.0814 13.0163C32.0244 13.3015 31.8836 13.5634 31.6769 13.7689C31.4701 13.9745 31.2067 14.1145 30.92 14.1712C30.6332 14.2279 30.336 14.1988 30.0659 14.0875C29.7958 13.9763 29.5649 13.7879 29.4025 13.5462C29.24 13.3045 29.1533 13.0203 29.1533 12.7296C29.1533 12.3398 29.3091 11.9659 29.5863 11.6903C29.8635 11.4146 30.2395 11.2598 30.6316 11.2598Z" fill="#2D24C0"></path>
    <path d="M2.28437 16.0519C2.73618 16.0519 3.17783 16.1851 3.5535 16.4347C3.92916 16.6842 4.22195 17.039 4.39485 17.454C4.56775 17.869 4.61299 18.3257 4.52485 18.7663C4.4367 19.2069 4.21914 19.6116 3.89966 19.9293C3.58019 20.2469 3.17315 20.4633 2.73003 20.5509C2.2869 20.6385 1.82759 20.5936 1.41018 20.4216C0.992765 20.2497 0.635996 19.9586 0.384986 19.5851C0.133976 19.2116 0 18.7724 0 18.3232C0 17.7208 0.240674 17.1431 0.669076 16.7171C1.09748 16.2912 1.67852 16.0519 2.28437 16.0519Z" fill="#2D24C0"></path>
    <path d="M24.9328 8.63009C24.4808 8.63009 24.0389 8.76342 23.6632 9.01321C23.2874 9.26301 22.9946 9.61803 22.8219 10.0333C22.6491 10.4487 22.6042 10.9056 22.6927 11.3463C22.7812 11.787 22.9993 12.1917 23.3192 12.5092C23.6392 12.8267 24.0467 13.0426 24.4901 13.1297C24.9336 13.2168 25.393 13.1711 25.8104 12.9985C26.2277 12.8258 26.5841 12.5339 26.8346 12.1598C27.085 11.7856 27.2181 11.346 27.2172 10.8966C27.2172 10.2942 26.9765 9.71646 26.5481 9.2905C26.1197 8.86455 25.5387 8.62524 24.9328 8.62524" fill="#2D24C0"></path>
    <path d="M28.3478 16.0519C27.896 16.0519 27.4544 16.1851 27.0787 16.4347C26.7031 16.6842 26.4103 17.039 26.2374 17.454C26.0645 17.869 26.0192 18.3257 26.1074 18.7663C26.1955 19.2069 26.4131 19.6116 26.7326 19.9293C27.052 20.2469 27.4591 20.4633 27.9022 20.5509C28.3453 20.6385 28.8046 20.5936 29.222 20.4216C29.6395 20.2497 29.9962 19.9586 30.2472 19.5851C30.4982 19.2116 30.6322 18.7724 30.6322 18.3232C30.6316 17.721 30.3907 17.1437 29.9624 16.7178C29.5342 16.292 28.9535 16.0525 28.3478 16.0519Z" fill="#2D24C0"></path>
    <path d="M24.9328 22.7424C24.481 22.7424 24.0393 22.8756 23.6637 23.1252C23.288 23.3748 22.9952 23.7295 22.8223 24.1446C22.6494 24.5596 22.6042 25.0163 22.6923 25.4569C22.7805 25.8975 22.998 26.3022 23.3175 26.6198C23.637 26.9375 24.044 27.1538 24.4872 27.2415C24.9303 27.3291 25.3896 27.2841 25.807 27.1122C26.2244 26.9403 26.5812 26.6492 26.8322 26.2756C27.0832 25.9021 27.2172 25.463 27.2172 25.0138C27.2172 24.4114 26.9765 23.8336 26.5481 23.4077C26.1197 22.9817 25.5387 22.7424 24.9328 22.7424Z" fill="#2D24C0"></path>
    <path d="M34.3918 16.0519C33.94 16.0519 33.4983 16.1851 33.1227 16.4347C32.747 16.6842 32.4542 17.039 32.2813 17.454C32.1084 17.869 32.0632 18.3257 32.1513 18.7663C32.2395 19.2069 32.457 19.6116 32.7765 19.9293C33.096 20.2469 33.503 20.4633 33.9461 20.5509C34.3893 20.6385 34.8486 20.5936 35.266 20.4216C35.6834 20.2497 36.0402 19.9586 36.2912 19.5851C36.5422 19.2116 36.6762 18.7724 36.6762 18.3232C36.6762 17.7208 36.4355 17.1431 36.0071 16.7171C35.5787 16.2912 34.9976 16.0519 34.3918 16.0519Z" fill="#2D24C0"></path>
    <path d="M34.3918 16.0519C33.94 16.0519 33.4983 16.1851 33.1227 16.4347C32.747 16.6842 32.4542 17.039 32.2813 17.454C32.1084 17.869 32.0632 18.3257 32.1513 18.7663C32.2395 19.2069 32.457 19.6116 32.7765 19.9293C33.096 20.2469 33.503 20.4633 33.9461 20.5509C34.3893 20.6385 34.8486 20.5936 35.266 20.4216C35.6834 20.2497 36.0402 19.9586 36.2912 19.5851C36.5422 19.2116 36.6762 18.7724 36.6762 18.3232C36.6762 17.7208 36.4355 17.1431 36.0071 16.7171C35.5787 16.2912 34.9976 16.0519 34.3918 16.0519Z" fill="#2D24C0"></path>
    <path d="M34.3918 16.0519C33.94 16.0519 33.4983 16.1851 33.1227 16.4347C32.747 16.6842 32.4542 17.039 32.2813 17.454C32.1084 17.869 32.0632 18.3257 32.1513 18.7663C32.2395 19.2069 32.457 19.6116 32.7765 19.9293C33.096 20.2469 33.503 20.4633 33.9461 20.5509C34.3893 20.6385 34.8486 20.5936 35.266 20.4216C35.6834 20.2497 36.0402 19.9586 36.2912 19.5851C36.5422 19.2116 36.6762 18.7724 36.6762 18.3232C36.6762 17.7208 36.4355 17.1431 36.0071 16.7171C35.5787 16.2912 34.9976 16.0519 34.3918 16.0519Z" fill="#2D24C0"></path>
  </g>
  <defs>
    <clipPath id="clip0_3551_11905">
      <rect width="206" height="38" fill="white"></rect>
    </clipPath>
  </defs>
</svg>
